<?xml version="1.0" standalone="no"?>
<!DOCTYPE svg PUBLIC "-//W3C//DTD SVG 20010904//EN"
 "http://www.w3.org/TR/2001/REC-SVG-20010904/DTD/svg10.dtd">
<svg version="1.0" xmlns="http://www.w3.org/2000/svg"
 width="500.000000pt" height="500.000000pt" viewBox="0 0 500.000000 500.000000"
 preserveAspectRatio="xMidYMid meet">

<g transform="translate(0.000000,500.000000) scale(0.100000,-0.100000)"
fill="#000000" stroke="none">
<path d="M1080 3875 l0 -35 1420 0 1420 0 0 35 0 35 -1420 0 -1420 0 0 -35z"/>
<path d="M1080 2460 l0 -40 1420 0 1420 0 0 40 0 40 -1420 0 -1420 0 0 -40z"/>
<path d="M1080 1090 l0 -40 1420 0 1420 0 0 40 0 40 -1420 0 -1420 0 0 -40z"/>
</g>
</svg>
